<svg version="1.1" id="Layer_1" xmlns="http://www.w3.org/2000/svg" xmlns:xlink="http://www.w3.org/1999/xlink" x="0px" y="0px"
	 width="100%" viewBox="0 0 3464 3464" enable-background="new 0 0 3464 3464" xml:space="preserve">
<path fill="#FEC400" opacity="1.000000" stroke="none" 
	d="
M3466.000000,1664.000000 
	C3466.000000,1710.708496 3466.000000,1757.416870 3465.320312,1804.357422 
	C3463.875488,1806.653198 3462.571045,1808.681519 3462.433350,1810.786133 
	C3461.589111,1823.703003 3461.344238,1836.665039 3460.272705,1849.559937 
	C3457.830078,1878.961304 3455.142090,1908.343750 3452.342041,1937.713745 
	C3447.676025,1986.651733 3439.140869,2035.025757 3429.443359,2083.143555 
	C3417.495117,2142.430176 3402.108154,2200.914551 3383.660400,2258.520508 
	C3361.139893,2328.845215 3334.415283,2397.539062 3303.148926,2464.497803 
	C3278.358154,2517.588623 3250.944824,2569.237549 3220.962891,2619.533203 
	C3180.538574,2687.346436 3135.552979,2751.996582 3086.208984,2813.653809 
	C3055.246826,2852.342041 3022.991211,2889.909912 2988.638428,2925.563477 
	C2962.318115,2952.880127 2934.597412,2978.857178 2907.268311,3005.190186 
	C2877.329346,3034.037109 2845.495361,3060.725586 2812.979004,3086.597412 
	C2751.479248,3135.531250 2687.193359,3180.430176 2619.531982,3220.490723 
	C2564.838623,3252.873291 2508.777100,3282.554932 2450.892822,3308.865723 
	C2372.395020,3344.545898 2291.739502,3374.294678 2208.818604,3397.833740 
	C2157.058105,3412.527100 2104.717529,3424.776855 2051.756592,3434.514648 
	C2000.509888,3443.937744 1949.022949,3451.371338 1897.147705,3456.020020 
	C1859.452026,3459.397949 1821.707397,3462.268311 1783.815918,3462.398682 
	C1781.632202,3462.406250 1779.451538,3463.348389 1777.269531,3463.855469 
	C1777.513062,3464.570312 1777.756592,3465.285156 1778.000000,3466.000000 
	C1750.624878,3466.000000 1723.249756,3466.000000 1695.538330,3465.270996 
	C1693.082275,3463.809814 1690.988525,3462.533936 1688.838623,3462.431396 
	C1671.580444,3461.606445 1654.298340,3461.237061 1637.048950,3460.275146 
	C1612.857178,3458.926270 1588.560913,3458.244873 1564.535767,3455.379639 
	C1523.396118,3450.472900 1482.364258,3444.533691 1441.409668,3438.232178 
	C1381.595947,3429.028809 1322.843872,3414.839111 1264.605103,3398.553467 
	C1212.078857,3383.865723 1160.480713,3366.350586 1109.648071,3346.571289 
	C1046.364502,3321.947021 984.765198,3293.736816 924.782043,3261.841553 
	C871.547424,3233.534424 819.872192,3202.692871 769.935364,3168.996826 
	C724.428772,3138.290039 680.036743,3105.945801 638.157288,3070.413086 
	C605.723511,3042.894287 573.590942,3014.931152 542.696411,2985.714844 
	C515.137451,2959.653076 489.296417,2931.759033 462.993011,2904.389404 
	C432.090118,2872.234131 403.741058,2837.840088 376.142761,2802.861572 
	C322.047760,2734.300049 273.595856,2661.917969 230.447098,2585.973389 
	C203.640549,2538.791504 179.030716,2490.488281 156.875336,2440.980713 
	C130.653763,2382.386963 107.674927,2322.500000 88.268959,2261.289062 
	C67.873039,2196.955566 50.448002,2131.820068 38.316273,2065.401611 
	C31.522514,2028.207153 25.213955,1990.872681 20.411415,1953.380615 
	C15.737245,1916.890625 12.678617,1880.161133 10.009531,1843.457031 
	C7.914578,1814.648071 6.948069,1785.725952 6.500204,1756.838257 
	C6.123967,1732.570679 6.889261,1708.268677 7.752266,1684.003296 
	C8.684513,1657.791016 9.832155,1631.567749 11.775500,1605.415283 
	C13.863673,1577.313721 15.975451,1549.147339 19.888039,1521.263306 
	C26.109882,1476.921997 32.685421,1432.569458 41.184357,1388.622437 
	C54.823776,1318.094849 74.024048,1248.919434 96.998077,1180.856812 
	C121.054298,1109.588257 149.933426,1040.254883 182.914932,972.661804 
	C204.514038,928.396057 228.372650,885.326233 253.806198,843.153381 
	C294.758270,775.248474 340.218872,710.488403 389.992279,648.743042 
	C419.845703,611.708984 451.042297,575.824585 484.099457,541.666809 
	C510.259674,514.635620 537.617188,488.746216 564.829346,462.754272 
	C597.787781,431.273651 632.839417,402.171448 668.627563,373.996277 
	C711.523010,340.225739 756.039856,308.716461 801.937195,279.106567 
	C852.591858,246.427521 904.863037,216.619232 958.695312,189.586472 
	C985.427185,176.162628 1012.665100,163.713730 1039.933228,151.397659 
	C1087.223389,130.038391 1135.676025,111.505707 1184.822876,94.969337 
	C1245.318726,74.614365 1306.844604,57.774174 1369.290161,44.397503 
	C1416.043213,34.382366 1463.097168,26.002445 1510.532593,20.111151 
	C1543.753052,15.985281 1577.105591,12.693166 1610.484131,10.138439 
	C1640.276611,7.858176 1670.177490,6.169051 1700.045288,5.906264 
	C1736.967529,5.581409 1773.904175,7.047792 1810.836182,7.647939 
	C1840.405151,8.128438 1869.872803,10.046302 1899.222290,13.657271 
	C1936.736694,18.272774 1974.349976,22.241037 2011.722290,27.818241 
	C2082.104004,38.321602 2151.280762,54.512878 2219.647461,74.210587 
	C2271.426758,89.129181 2322.359863,106.611305 2372.336914,126.655472 
	C2426.338379,148.313675 2479.794434,171.351807 2530.923828,199.320862 
	C2564.179443,217.512695 2597.644775,235.398254 2630.148682,254.869461 
	C2684.415771,287.377563 2736.463379,323.245544 2786.654297,361.814514 
	C2836.272705,399.943420 2883.866211,440.452515 2928.960938,483.775787 
	C2963.282227,516.748901 2996.506104,550.845642 3028.158447,586.480652 
	C3077.712158,642.269653 3123.496582,700.954285 3165.480957,762.586487 
	C3212.743652,831.967407 3254.767090,904.396057 3291.393555,979.992737 
	C3321.005371,1041.110229 3347.138428,1103.642334 3369.425293,1167.749146 
	C3395.312500,1242.211426 3416.374512,1318.074707 3431.165283,1395.525635 
	C3438.630615,1434.616577 3444.348633,1474.055054 3450.204102,1513.433350 
	C3453.079346,1532.768433 3454.657959,1552.306763 3456.477539,1571.785400 
	C3458.420410,1592.578857 3460.099609,1613.399902 3461.601318,1634.230103 
	C3462.247070,1643.185913 3462.075439,1652.198608 3462.469238,1661.176880 
	C3462.547852,1662.959229 3462.392090,1666.133667 3466.000000,1664.000000 
M1362.321777,2118.617188 
	C1389.436523,2155.646240 1420.563599,2188.917969 1456.176880,2217.873779 
	C1557.664795,2300.390137 1674.765869,2343.218750 1804.300415,2353.861572 
	C1861.307251,2358.545166 1918.155273,2355.969971 1974.802246,2348.215088 
	C2036.174194,2339.813477 2095.580322,2324.187500 2152.326660,2299.225830 
	C2203.026367,2276.923828 2249.786621,2248.479004 2288.859131,2208.558350 
	C2289.991699,2207.401123 2291.373291,2206.487549 2292.645020,2205.455566 
	C2293.702148,2206.269775 2294.593506,2206.768555 2295.245605,2207.485352 
	C2333.430664,2249.457764 2380.489990,2278.622070 2431.888672,2301.188477 
	C2490.827637,2327.064697 2552.501221,2342.927734 2616.430664,2350.597168 
	C2667.930176,2356.775146 2719.488770,2357.759277 2771.075439,2353.479004 
	C2829.730469,2348.612305 2886.950195,2336.561523 2942.410156,2316.479980 
	C3016.658936,2289.594971 3083.453125,2250.324219 3140.921143,2196.026855 
	C3236.589600,2105.636719 3290.107178,1994.007080 3305.662598,1863.865234 
	C3313.556641,1797.819092 3310.370117,1732.109253 3296.113770,1667.092041 
	C3270.055420,1548.252808 3213.091064,1447.136963 3121.387939,1366.579346 
	C3027.309082,1283.934570 2916.992188,1240.656372 2792.207275,1234.621338 
	C2728.984375,1231.563721 2666.395264,1237.993896 2604.704346,1252.237549 
	C2554.448242,1263.841064 2506.484619,1281.499878 2461.967773,1307.904297 
	C2451.972412,1313.832886 2451.418701,1315.223999 2456.101074,1325.236938 
	C2493.621582,1405.470093 2531.172363,1485.689087 2568.760010,1565.890869 
	C2573.050293,1575.045410 2574.667480,1575.669189 2584.225098,1572.558960 
	C2600.366211,1567.306152 2616.563477,1562.209351 2632.594482,1556.636963 
	C2676.043213,1541.533569 2720.686279,1536.188110 2766.445557,1539.914795 
	C2794.968262,1542.237671 2822.267822,1549.259766 2847.556396,1562.913452 
	C2890.219727,1585.947876 2918.450439,1621.560303 2936.305420,1665.997437 
	C2948.723145,1696.902100 2954.519531,1729.234131 2956.862793,1762.312256 
	C2960.237793,1809.947632 2957.050781,1856.912598 2941.730225,1902.460327 
	C2920.715088,1964.937256 2881.376221,2011.581909 2820.827881,2038.960327 
	C2766.763672,2063.406982 2709.722656,2068.581299 2651.596924,2061.091797 
	C2598.906494,2054.302734 2551.778076,2033.396606 2510.614502,1999.535034 
	C2484.591797,1978.128662 2463.121582,1952.922974 2446.971436,1923.258545 
	C2444.839355,1919.342773 2443.483154,1915.615967 2444.404785,1910.969604 
	C2453.199463,1866.630615 2455.591553,1821.831299 2454.432617,1776.708130 
	C2452.687988,1708.765503 2440.057129,1643.093628 2414.471680,1580.057251 
	C2361.472412,1449.481201 2269.254883,1356.095459 2142.901123,1295.773926 
	C2065.591797,1258.866211 1983.557007,1240.322388 1898.132080,1235.436646 
	C1840.931396,1232.165039 1784.272949,1235.219971 1728.027100,1246.060669 
	C1649.234985,1261.246460 1575.955322,1290.057251 1509.404663,1335.175659 
	C1441.110229,1381.476074 1386.888184,1440.540405 1348.703857,1513.961914 
	C1342.758789,1525.393188 1343.033447,1526.448486 1353.601562,1533.038086 
	C1354.167114,1533.390625 1354.740967,1533.729736 1355.308594,1534.079224 
	C1429.069580,1579.482544 1502.830444,1624.886108 1576.591431,1670.289307 
	C1578.576782,1671.511475 1580.572754,1672.716553 1582.553589,1673.945801 
	C1586.631592,1676.476807 1590.131226,1675.737183 1593.118530,1672.092896 
	C1595.442627,1669.257690 1597.772705,1666.427368 1600.072388,1663.572510 
	C1617.662720,1641.735718 1636.487305,1621.032227 1657.163208,1602.073853 
	C1685.129883,1576.430908 1715.668579,1554.769897 1751.645386,1541.581909 
	C1774.337769,1533.263550 1797.836060,1528.932373 1821.832397,1526.992188 
	C1852.846802,1524.484131 1883.882446,1524.423218 1914.429321,1530.738403 
	C1997.092163,1547.827881 2054.249756,1596.064453 2083.031982,1675.249146 
	C2111.050293,1752.332153 2111.036133,1830.880493 2085.356689,1908.632202 
	C2066.677979,1965.187744 2030.202881,2007.858032 1976.420288,2034.441406 
	C1919.659180,2062.496826 1859.343506,2068.908691 1797.226929,2060.863281 
	C1740.768311,2053.551270 1694.227783,2026.696045 1654.640137,1986.598145 
	C1632.303101,1963.973022 1612.876221,1939.070312 1595.118042,1912.776367 
	C1589.118774,1903.893433 1587.155151,1903.424561 1577.989502,1908.338013 
	C1495.212646,1952.712891 1412.452515,1997.118896 1329.709961,2041.557739 
	C1320.327759,2046.596558 1319.346313,2048.884277 1324.783447,2057.965576 
	C1336.751343,2077.954834 1349.245117,2097.629150 1362.321777,2118.617188 
M998.818054,2291.823730 
	C1064.740479,2254.836426 1117.431396,2203.961670 1157.312134,2139.891846 
	C1204.669800,2063.810059 1228.922119,1979.947388 1240.122437,1891.728638 
	C1241.098511,1884.040649 1239.174438,1879.493530 1232.154663,1875.680542 
	C1192.946533,1854.383789 1154.395020,1831.842163 1114.808716,1811.286621 
	C1065.694824,1785.783813 1014.687073,1764.567505 961.484802,1748.857422 
	C905.954834,1732.459961 849.359497,1722.630615 791.483826,1720.433960 
	C748.040222,1718.785034 704.948547,1721.910034 662.144104,1729.699463 
	C610.336853,1739.127197 560.819519,1755.066284 514.352112,1780.071045 
	C511.835114,1781.425537 509.167908,1782.500977 505.994690,1783.973755 
	C505.864838,1781.042114 505.660675,1779.078979 505.708588,1777.122070 
	C506.577545,1741.637451 511.239075,1706.684326 522.300232,1672.891113 
	C548.876160,1591.697876 603.174072,1539.888428 686.658203,1519.680054 
	C723.897034,1510.665894 761.657959,1509.148682 799.831543,1511.623535 
	C853.053894,1515.074097 903.502808,1528.299194 951.454712,1551.530273 
	C990.366394,1570.381836 1025.803223,1594.487183 1059.218262,1621.751465 
	C1068.416016,1629.255981 1071.191162,1628.631592 1076.522583,1618.212036 
	C1114.141846,1544.691528 1151.735107,1471.157593 1189.304932,1397.611938 
	C1194.167725,1388.092285 1193.784790,1386.602417 1184.981689,1380.407349 
	C1153.357666,1358.151123 1120.980835,1337.058594 1087.108521,1318.365967 
	C1037.051514,1290.741577 984.807312,1268.473999 929.119446,1254.814941 
	C882.372681,1243.349243 834.914734,1237.454102 786.834717,1235.339966 
	C733.771667,1233.006714 680.949951,1233.714478 628.309387,1241.687500 
	C539.750427,1255.100830 457.335907,1284.583862 383.152496,1335.325195 
	C321.776184,1377.306396 271.548737,1430.129272 233.103043,1493.846436 
	C188.608688,1567.588379 164.335373,1647.995728 156.423782,1733.419189 
	C152.297989,1777.966675 152.740540,1822.579102 157.664566,1867.139404 
	C163.477585,1919.744629 175.676392,1970.671143 195.576599,2019.767822 
	C239.836731,2128.963379 313.388153,2213.059326 414.244965,2273.122803 
	C502.218811,2325.514160 598.388000,2350.989014 700.247498,2355.547119 
	C748.972290,2357.727539 797.492065,2354.830078 845.567566,2345.918701 
	C899.011475,2336.011963 949.893860,2318.918945 998.818054,2291.823730 
M1453.724365,654.988586 
	C1467.577148,627.568237 1490.522461,613.545288 1520.483398,610.771362 
	C1566.075684,606.550232 1605.307739,629.649658 1615.991821,678.050171 
	C1619.844849,695.504028 1619.552979,713.032227 1617.027222,730.684998 
	C1615.049438,744.509033 1612.682861,758.445435 1612.614624,772.342346 
	C1612.429443,809.991699 1632.199219,838.179626 1666.904297,850.324463 
	C1695.462524,860.318298 1724.462402,860.659058 1753.170410,850.729004 
	C1789.605591,838.126099 1810.131958,808.162720 1808.668701,769.609131 
	C1808.240967,758.336975 1806.638794,747.060913 1804.866455,735.899170 
	C1801.869873,717.027100 1799.994995,698.188232 1804.141479,679.294739 
	C1811.542358,645.571167 1830.682129,622.401855 1864.766113,613.185059 
	C1879.764526,609.129333 1895.025024,608.592407 1910.327515,611.541870 
	C1938.266235,616.926758 1958.501099,632.498169 1969.231201,658.802124 
	C1980.784912,687.124695 1980.834595,716.141052 1969.243530,744.518616 
	C1960.370605,766.241394 1944.067627,780.431519 1920.881714,785.374451 
	C1904.726440,788.818604 1888.444946,788.636047 1872.561035,783.055664 
	C1871.134521,782.554565 1869.545776,782.515198 1867.607788,782.190186 
	C1861.376465,804.406494 1855.305542,826.051331 1849.092163,848.203674 
	C1853.769409,849.705750 1857.206787,850.875732 1860.683350,851.915283 
	C1880.095337,857.719666 1900.045654,859.000671 1920.070923,857.778870 
	C1973.572876,854.514465 2014.644775,830.137268 2041.609741,783.578979 
	C2058.627441,754.196350 2064.840820,722.029785 2061.915771,688.298828 
	C2057.055664,632.258057 2030.146729,590.339050 1980.276489,563.810059 
	C1950.703247,548.078369 1918.774780,542.798462 1885.567993,543.996826 
	C1852.201294,545.200989 1821.254761,554.040588 1793.477173,572.998718 
	C1791.382568,574.428345 1789.080688,575.554260 1786.631226,576.961548 
	C1765.521729,554.545288 1740.093628,543.702271 1709.692871,543.720459 
	C1679.242920,543.738647 1654.484375,556.238770 1633.465332,577.282288 
	C1617.778687,565.806946 1601.683594,557.212158 1583.970215,551.888489 
	C1550.006836,541.680908 1515.604858,541.059998 1481.247070,548.907776 
	C1439.277832,558.494141 1404.853638,579.914856 1381.938477,617.227417 
	C1357.122314,657.635193 1353.374512,701.464905 1365.409912,746.305420 
	C1380.076538,800.948486 1414.561890,837.630432 1469.888428,852.900513 
	C1496.368652,860.209045 1523.339966,859.367981 1550.202026,855.062988 
	C1557.566528,853.882751 1564.674072,851.098328 1572.554077,848.864441 
	C1565.861694,825.915771 1559.557373,804.297363 1553.304077,782.854248 
	C1545.112793,784.347168 1537.693970,786.196167 1530.163696,786.989258 
	C1488.719482,791.354065 1457.774170,769.978088 1447.568604,729.621094 
	C1441.268066,704.706604 1442.319458,680.095886 1453.724365,654.988586 
M1946.058594,2674.898682 
	C1919.155029,2654.704102 1888.593750,2647.703857 1855.582275,2650.466309 
	C1836.768311,2652.040527 1818.058350,2654.610352 1801.394409,2665.946289 
	C1810.062378,2684.415527 1818.363037,2702.102051 1826.757202,2719.987793 
	C1831.833374,2718.267578 1836.136963,2716.514160 1840.593872,2715.344727 
	C1878.528564,2705.390381 1910.579956,2720.455322 1921.961914,2760.395996 
	C1926.495239,2776.304688 1927.214600,2792.490479 1924.134033,2808.864746 
	C1917.838501,2842.328125 1894.486694,2865.453125 1861.047119,2869.275879 
	C1828.737671,2872.969971 1799.033936,2857.703613 1783.724121,2828.680420 
	C1781.630493,2824.711182 1780.813354,2820.890381 1781.510498,2816.286865 
	C1783.814087,2801.076660 1784.128784,2785.802246 1782.150513,2770.471191 
	C1776.003418,2722.835205 1753.175781,2686.515625 1709.438232,2665.169434 
	C1673.521240,2647.640381 1635.774292,2645.945068 1597.384033,2655.614990 
	C1569.901489,2662.537598 1545.890747,2675.547607 1527.764771,2697.908447 
	C1523.670410,2702.959473 1520.474854,2708.739258 1516.451660,2714.807617 
	C1534.190308,2725.707520 1550.820312,2735.926514 1567.704102,2746.301270 
	C1569.921997,2743.828857 1571.688110,2741.894775 1573.416748,2739.927734 
	C1589.521606,2721.600586 1609.182983,2710.837158 1634.031250,2709.251953 
	C1665.733765,2707.229492 1690.973511,2722.638916 1701.975464,2752.332275 
	C1709.719849,2773.233398 1710.724243,2794.743408 1705.251587,2816.208740 
	C1698.575806,2842.394531 1682.770142,2860.740234 1655.834839,2867.250977 
	C1624.128540,2874.914551 1597.325806,2865.828369 1575.722656,2841.450195 
	C1572.651001,2837.983887 1569.892700,2834.240234 1566.651611,2830.204590 
	C1548.067017,2840.138428 1529.696411,2849.957764 1511.380371,2859.748047 
	C1525.605713,2889.254395 1556.971191,2913.584961 1596.087891,2922.805176 
	C1653.651367,2936.373535 1707.151733,2929.792969 1750.215820,2886.458984 
	C1760.315430,2894.591064 1769.009033,2903.806152 1779.558105,2909.699707 
	C1824.067139,2934.567383 1870.486328,2934.554443 1917.369263,2917.061768 
	C1936.630249,2909.874756 1952.832031,2897.616211 1967.782104,2881.609619 
	C1968.791626,2883.248047 1969.397095,2884.469238 1970.216064,2885.524658 
	C1984.855347,2904.392822 2004.276733,2915.873047 2026.910522,2922.624023 
	C2053.380615,2930.519531 2080.244629,2930.883789 2106.997314,2925.681396 
	C2146.804443,2917.940430 2178.739014,2897.574219 2199.886230,2862.384277 
	C2219.133545,2830.355957 2223.248535,2795.545410 2216.161621,2759.233887 
	C2200.299072,2677.957520 2123.050293,2626.676514 2030.625854,2659.930908 
	C2026.776245,2661.316406 2023.376709,2663.952637 2019.736938,2666.023438 
	C2028.578003,2684.763916 2036.892822,2702.388672 2045.195190,2719.987305 
	C2050.727539,2718.111328 2055.035645,2716.322754 2059.508789,2715.185059 
	C2097.881104,2705.427490 2129.050781,2721.300781 2140.204346,2759.995117 
	C2145.088623,2776.939209 2145.669678,2794.132080 2141.952148,2811.389893 
	C2134.895508,2844.148193 2110.322754,2866.424072 2077.879150,2869.608643 
	C2045.892334,2872.748535 2013.163574,2854.166992 2000.475708,2825.429199 
	C1999.200073,2822.539795 1998.625000,2819.074951 1998.701904,2815.901123 
	C1999.007080,2803.291016 2000.834106,2790.618652 2000.041870,2778.099365 
	C1997.405396,2736.441650 1980.340942,2701.860596 1946.058594,2674.898682 
M1207.973755,723.003906 
	C1207.973755,852.494263 1207.973755,981.984680 1207.973755,1111.578369 
	C1256.769531,1111.578369 1304.245117,1111.578369 1351.942749,1111.578369 
	C1351.942749,1089.496582 1351.942749,1068.016479 1351.942749,1045.516602 
	C1331.599609,1045.516602 1311.764526,1045.516602 1290.957764,1045.516602 
	C1290.957764,1040.562988 1290.957642,1036.628540 1290.957642,1032.693970 
	C1290.957642,925.392883 1291.060547,818.091614 1290.828735,710.791077 
	C1290.799316,697.184326 1290.179077,683.377991 1287.839966,670.012817 
	C1278.842651,618.602112 1251.323730,580.545471 1203.445312,558.627319 
	C1167.024536,541.954224 1128.660034,539.619080 1090.021973,548.267700 
	C1036.814453,560.177673 999.251892,591.314209 980.310547,643.157288 
	C969.286438,673.330444 968.136841,704.511414 974.217957,735.767700 
	C983.267395,782.281067 1008.111755,817.661255 1050.547119,839.896667 
	C1083.276489,857.046326 1118.352905,860.799316 1154.452637,857.094971 
	C1166.249023,855.884460 1177.836914,852.642212 1190.045166,850.225159 
	C1189.265503,817.981995 1186.013428,787.411560 1174.590820,758.114197 
	C1163.047241,728.506409 1143.703735,705.559692 1116.675659,688.909058 
	C1097.463867,677.073669 1076.489014,669.761658 1054.843262,664.043640 
	C1051.467896,663.152039 1048.128540,662.124634 1044.284302,661.019653 
	C1045.592285,658.125854 1046.401245,655.959778 1047.503418,653.954834 
	C1061.565674,628.374695 1083.458130,614.410889 1112.163940,610.967590 
	C1151.905884,606.200623 1192.361328,624.935120 1204.277344,672.333496 
	C1208.313110,688.386719 1208.010620,704.687012 1207.973755,723.003906 
M2514.329834,2889.324951 
	C2510.810059,2897.144775 2507.290527,2904.964600 2503.146484,2914.172119 
	C2511.846924,2917.531494 2519.640625,2921.224609 2527.821777,2923.562744 
	C2547.260986,2929.119385 2567.257324,2930.098633 2587.262695,2928.146973 
	C2634.455078,2923.542480 2668.839111,2900.683105 2685.962646,2855.530029 
	C2700.621582,2816.875977 2701.399902,2777.121094 2689.197510,2737.835938 
	C2675.573242,2693.973145 2645.291016,2666.323486 2600.810791,2655.124512 
	C2570.272217,2647.436035 2539.275391,2647.610352 2508.793213,2655.421143 
	C2493.461670,2659.349609 2478.773438,2665.787598 2462.903809,2671.406006 
	C2461.090820,2670.328857 2458.280273,2668.566895 2455.386719,2666.954590 
	C2423.645020,2649.265137 2390.141602,2644.895508 2355.009277,2654.135498 
	C2342.238281,2657.494385 2331.092529,2664.144775 2321.295166,2672.976318 
	C2292.977295,2698.502686 2292.413574,2749.327637 2327.966553,2774.008545 
	C2342.611084,2784.174561 2358.795898,2791.041016 2374.925049,2798.202393 
	C2385.865967,2803.060059 2396.930420,2807.840820 2407.233154,2813.864258 
	C2414.276367,2817.982178 2421.142578,2823.338623 2426.248779,2829.633057 
	C2435.983154,2841.632568 2433.163330,2857.402344 2420.801025,2866.531250 
	C2413.757568,2871.732422 2405.727539,2874.496338 2397.648438,2875.657471 
	C2392.879639,2864.033203 2389.353760,2852.464111 2383.658936,2842.085205 
	C2362.218018,2803.010986 2313.020508,2791.558105 2275.800293,2816.201172 
	C2240.426758,2839.621582 2246.289551,2887.499512 2271.653076,2906.253418 
	C2282.052246,2913.941895 2293.455322,2919.227539 2305.915527,2921.854492 
	C2319.220459,2924.659180 2332.744141,2926.427002 2347.227051,2928.822021 
	C2347.227051,3003.277832 2347.227051,3078.098877 2347.227051,3153.462402 
	C2365.385742,3153.462402 2382.523438,3153.462402 2400.885010,3153.462402 
	C2400.885010,3077.924561 2400.885010,3002.828125 2400.885010,2927.106445 
	C2405.611328,2926.646484 2409.199463,2926.341309 2412.777344,2925.942139 
	C2429.777588,2924.044189 2446.229492,2920.125488 2461.561523,2912.301270 
	C2483.133789,2901.291992 2497.128906,2884.307129 2500.372559,2859.990967 
	C2501.720215,2849.887207 2501.527832,2839.406738 2500.665527,2829.213623 
	C2498.693848,2805.910645 2486.237549,2788.811768 2466.761719,2776.701416 
	C2459.151123,2771.968994 2451.146973,2767.740479 2442.962402,2764.088867 
	C2428.681885,2757.717285 2413.954346,2752.336914 2399.745605,2745.818604 
	C2391.652588,2742.105957 2383.441895,2737.891357 2376.665283,2732.245117 
	C2366.585205,2723.847412 2369.440186,2710.469238 2381.880371,2706.285400 
	C2387.021729,2704.556396 2393.099854,2704.175049 2398.505127,2704.934570 
	C2415.869629,2707.374756 2430.471436,2715.762451 2443.054688,2728.187500 
	C2446.376709,2725.057617 2449.454346,2722.157715 2452.862305,2718.947021 
	C2457.812500,2726.371826 2462.370850,2733.208740 2467.011230,2740.168945 
	C2473.324463,2736.937500 2478.915283,2734.013184 2484.560303,2731.197021 
	C2508.619629,2719.195557 2534.011475,2713.320801 2560.915039,2715.646729 
	C2588.119385,2717.998535 2606.896729,2732.087646 2616.138428,2757.894287 
	C2623.393799,2778.153564 2624.402100,2799.060303 2619.069336,2819.875732 
	C2613.433838,2841.874512 2601.154541,2858.471191 2577.993896,2864.526855 
	C2564.724121,2867.996338 2551.590332,2866.609619 2538.693115,2862.222900 
	C2535.371826,2861.093506 2531.983398,2860.161377 2528.371338,2859.061035 
	C2523.646484,2869.280273 2519.324219,2878.629395 2514.329834,2889.324951 
M2261.882812,544.605957 
	C2251.399902,546.418030 2240.724854,547.493652 2230.467285,550.169495 
	C2185.826660,561.815002 2150.667236,586.241028 2129.294922,628.059143 
	C2114.810059,656.400940 2110.273193,686.673401 2113.639648,718.251953 
	C2119.758789,775.649414 2148.333740,817.775085 2200.935547,841.530518 
	C2250.814941,864.056458 2302.467773,864.611023 2353.621094,845.569092 
	C2395.734619,829.892151 2425.473145,800.604553 2441.319580,758.166443 
	C2449.952881,735.046021 2452.564453,711.001953 2450.171631,686.435486 
	C2444.471191,627.908447 2415.515381,585.363892 2362.246826,560.153259 
	C2331.080566,545.403198 2297.779541,542.099426 2261.882812,544.605957 
M2836.152100,662.973022 
	C2827.192627,611.911072 2802.896484,571.144226 2757.047852,543.778564 
	C2742.902588,566.325928 2729.316162,587.982788 2715.353760,610.239258 
	C2745.999268,636.196228 2761.360840,668.334045 2757.986816,709.916321 
	C2699.054443,681.302856 2640.983887,682.241516 2582.416260,711.372070 
	C2580.733398,690.715027 2582.963379,672.236694 2590.680420,654.525269 
	C2598.373291,636.869568 2610.984375,622.838379 2625.272705,610.197449 
	C2610.937256,587.385559 2597.336182,565.741882 2583.678467,544.008057 
	C2559.796875,557.224365 2541.752686,575.187012 2528.274414,597.548157 
	C2503.295410,638.989624 2496.350098,684.195923 2503.897705,731.350403 
	C2512.938965,787.838745 2545.296143,826.485779 2598.890381,846.156128 
	C2645.196045,863.151306 2692.479004,863.289551 2739.033936,847.354919 
	C2786.979004,830.944519 2818.899902,797.989868 2833.086182,748.889709 
	C2841.094238,721.172852 2841.111816,692.998962 2836.152100,662.973022 
M829.520081,649.811096 
	C838.581482,668.420105 841.671997,688.024536 840.063965,709.559082 
	C836.078979,707.957764 833.053589,706.825439 830.094849,705.539429 
	C811.363342,697.398071 792.048584,691.516846 771.571045,689.803345 
	C736.953979,686.906616 703.904236,692.430969 672.583069,707.709351 
	C670.130310,708.905823 667.435974,709.607056 664.343567,710.722534 
	C662.710327,690.446594 664.989990,672.146790 672.569092,654.655396 
	C680.231873,636.970947 692.838928,622.937378 707.223816,610.207581 
	C692.981323,587.528992 679.391479,565.889587 665.643433,543.998291 
	C638.172180,559.271240 618.287048,580.786560 604.447083,607.705383 
	C584.281860,646.926880 578.720215,688.804810 585.914429,731.985657 
	C595.243591,787.980469 627.325867,826.390930 680.430237,846.020081 
	C726.662354,863.109009 773.958069,863.397095 820.499207,847.499207 
	C870.732483,830.340271 903.161987,795.594482 916.364990,743.648315 
	C922.107666,721.054199 922.537903,698.190674 919.899231,675.194092 
	C916.671936,647.068481 908.747986,620.446228 893.517517,596.345154 
	C879.773193,574.595764 862.178650,556.803711 838.855774,544.011780 
	C824.932983,566.213989 811.202515,588.109680 797.302307,610.275940 
	C810.429993,621.627930 821.184387,633.801025 829.520081,649.811096 
M933.385254,2654.157715 
	C930.802246,2654.801758 928.200195,2655.378174 925.639221,2656.100098 
	C886.227722,2667.213135 855.633057,2689.470215 837.104187,2726.697510 
	C824.713257,2751.593018 821.330688,2778.217285 824.295349,2805.497803 
	C829.673828,2854.989258 854.366821,2891.801514 899.623657,2913.171143 
	C940.856567,2932.640869 984.030151,2933.815430 1027.280762,2920.994873 
	C1061.822388,2910.756104 1088.953125,2890.022461 1106.457520,2857.954590 
	C1120.428101,2832.360352 1125.268188,2804.891357 1122.364624,2775.931885 
	C1117.315430,2725.574463 1092.963379,2688.171387 1047.249512,2665.894043 
	C1011.495300,2648.470459 973.668640,2646.589355 933.385254,2654.157715 
M1357.682617,2858.920410 
	C1355.030151,2860.306152 1352.454590,2861.870361 1349.713623,2863.050537 
	C1312.853027,2878.920898 1264.571289,2867.674072 1248.819702,2823.292725 
	C1236.332764,2788.110840 1240.862671,2754.363037 1263.945557,2724.088623 
	C1267.958008,2718.825684 1272.625732,2714.062256 1277.390625,2708.610596 
	C1265.221802,2689.183594 1253.109985,2669.847656 1240.762939,2650.136230 
	C1219.690186,2662.104492 1203.864990,2677.917480 1191.775757,2697.525391 
	C1171.006348,2731.212646 1164.501709,2768.348389 1168.631348,2806.958008 
	C1174.470703,2861.550537 1203.371826,2899.811279 1255.404297,2918.620605 
	C1294.145508,2932.625244 1333.974609,2932.900391 1373.251343,2920.917480 
	C1417.315063,2907.474365 1448.304077,2878.976074 1460.939453,2834.159668 
	C1474.585083,2785.758789 1468.130005,2739.044678 1442.014771,2695.738525 
	C1430.505371,2676.653076 1414.701416,2661.571289 1394.302002,2650.191895 
	C1381.968994,2669.872803 1369.829346,2689.245361 1357.685669,2708.624268 
	C1358.964600,2710.166992 1359.714111,2711.273193 1360.656738,2712.178467 
	C1385.515137,2736.049805 1394.744263,2765.681152 1391.864746,2799.312988 
	C1389.780396,2823.658936 1380.061157,2844.219482 1357.682617,2858.920410 
M2782.225098,1053.102661 
	C2791.332275,1020.620789 2789.145508,988.394104 2779.040039,956.660706 
	C2771.253418,932.208679 2757.033691,911.965271 2735.961426,896.902466 
	C2733.918945,895.442322 2731.509766,894.495117 2728.871826,893.098816 
	C2717.798828,910.890564 2707.100830,928.080017 2696.005615,945.907837 
	C2718.067871,965.737305 2726.494629,990.506409 2723.495850,1020.908752 
	C2705.159424,1013.235535 2686.730713,1009.809814 2667.590088,1009.566040 
	C2648.440430,1009.322083 2630.366699,1014.165039 2612.326172,1020.859985 
	C2608.701416,990.395020 2616.976807,965.560547 2639.621582,945.859131 
	C2628.335938,927.806885 2617.486816,910.452637 2606.314941,892.582275 
	C2584.191162,906.252991 2569.018799,924.232727 2559.761719,947.110474 
	C2547.441650,977.557983 2544.689209,1009.199097 2550.566162,1041.308228 
	C2558.909912,1086.895020 2590.866211,1118.779175 2636.200439,1128.151611 
	C2651.649658,1131.345581 2667.153809,1132.136597 2682.891846,1130.457397 
	C2731.348389,1125.287354 2766.008545,1102.318115 2782.225098,1053.102661 
M1031.401367,2447.514648 
	C999.587280,2424.384033 964.994263,2422.047852 929.045227,2435.109131 
	C902.962219,2444.585693 886.505127,2463.898193 878.057861,2490.179443 
	C873.704834,2503.722656 873.114868,2517.631104 874.162598,2531.658203 
	C876.962769,2569.146240 900.709473,2599.806885 935.971436,2610.822998 
	C960.583557,2618.512207 985.153870,2617.854736 1009.289490,2608.421875 
	C1022.535706,2603.245117 1033.778198,2595.224121 1043.177612,2584.476074 
	C1074.693970,2548.436768 1072.581543,2480.491455 1031.401367,2447.514648 
z"/>
<path fill="#000000" opacity="1.000000" stroke="none" 
	d="
M3466.000000,1663.062744 
	C3462.392090,1666.133667 3462.547852,1662.959229 3462.469238,1661.176880 
	C3462.075439,1652.198608 3462.247070,1643.185913 3461.601318,1634.230103 
	C3460.099609,1613.399902 3458.420410,1592.578857 3456.477539,1571.785400 
	C3454.657959,1552.306763 3453.079346,1532.768433 3450.204102,1513.433350 
	C3444.348633,1474.055054 3438.630615,1434.616577 3431.165283,1395.525635 
	C3416.374512,1318.074707 3395.312500,1242.211426 3369.425293,1167.749146 
	C3347.138428,1103.642334 3321.005371,1041.110229 3291.393555,979.992737 
	C3254.767090,904.396057 3212.743652,831.967407 3165.480957,762.586487 
	C3123.496582,700.954285 3077.712158,642.269653 3028.158447,586.480652 
	C2996.506104,550.845642 2963.282227,516.748901 2928.960938,483.775787 
	C2883.866211,440.452515 2836.272705,399.943420 2786.654297,361.814514 
	C2736.463379,323.245544 2684.415771,287.377563 2630.148682,254.869461 
	C2597.644775,235.398254 2564.179443,217.512695 2530.923828,199.320862 
	C2479.794434,171.351807 2426.338379,148.313675 2372.336914,126.655472 
	C2322.359863,106.611305 2271.426758,89.129181 2219.647461,74.210587 
	C2151.280762,54.512878 2082.104004,38.321602 2011.722290,27.818241 
	C1974.349976,22.241037 1936.736694,18.272774 1899.222290,13.657271 
	C1869.872803,10.046302 1840.405151,8.128438 1810.836182,7.647939 
	C1773.904175,7.047792 1736.967529,5.581409 1700.045288,5.906264 
	C1670.177490,6.169051 1640.276611,7.858176 1610.484131,10.138439 
	C1577.105591,12.693166 1543.753052,15.985281 1510.532593,20.111151 
	C1463.097168,26.002445 1416.043213,34.382366 1369.290161,44.397503 
	C1306.844604,57.774174 1245.318726,74.614365 1184.822876,94.969337 
	C1135.676025,111.505707 1087.223389,130.038391 1039.933228,151.397659 
	C1012.665100,163.713730 985.427185,176.162628 958.695312,189.586472 
	C904.863037,216.619232 852.591858,246.427521 801.937195,279.106567 
	C756.039856,308.716461 711.523010,340.225739 668.627563,373.996277 
	C632.839417,402.171448 597.787781,431.273651 564.829346,462.754272 
	C537.617188,488.746216 510.259674,514.635620 484.099457,541.666809 
	C451.042297,575.824585 419.845703,611.708984 389.992279,648.743042 
	C340.218872,710.488403 294.758270,775.248474 253.806198,843.153381 
	C228.372650,885.326233 204.514038,928.396057 182.914932,972.661804 
	C149.933426,1040.254883 121.054298,1109.588257 96.998077,1180.856812 
	C74.024048,1248.919434 54.823776,1318.094849 41.184357,1388.622437 
	C32.685421,1432.569458 26.109882,1476.921997 19.888039,1521.263306 
	C15.975451,1549.147339 13.863673,1577.313721 11.775500,1605.415283 
	C9.832155,1631.567749 8.684513,1657.791016 7.752266,1684.003296 
	C6.889261,1708.268677 6.123967,1732.570679 6.500204,1756.838257 
	C6.948069,1785.725952 7.914578,1814.648071 10.009531,1843.457031 
	C12.678617,1880.161133 15.737245,1916.890625 20.411415,1953.380615 
	C25.213955,1990.872681 31.522514,2028.207153 38.316273,2065.401611 
	C50.448002,2131.820068 67.873039,2196.955566 88.268959,2261.289062 
	C107.674927,2322.500000 130.653763,2382.386963 156.875336,2440.980713 
	C179.030716,2490.488281 203.640549,2538.791504 230.447098,2585.973389 
	C273.595856,2661.917969 322.047760,2734.300049 376.142761,2802.861572 
	C403.741058,2837.840088 432.090118,2872.234131 462.993011,2904.389404 
	C489.296417,2931.759033 515.137451,2959.653076 542.696411,2985.714844 
	C573.590942,3014.931152 605.723511,3042.894287 638.157288,3070.413086 
	C680.036743,3105.945801 724.428772,3138.290039 769.935364,3168.996826 
	C819.872192,3202.692871 871.547424,3233.534424 924.782043,3261.841553 
	C984.765198,3293.736816 1046.364502,3321.947021 1109.648071,3346.571289 
	C1160.480713,3366.350586 1212.078857,3383.865723 1264.605103,3398.553467 
	C1322.843872,3414.839111 1381.595947,3429.028809 1441.409668,3438.232178 
	C1482.364258,3444.533691 1523.396118,3450.472900 1564.535767,3455.379639 
	C1588.560913,3458.244873 1612.857178,3458.926270 1637.048950,3460.275146 
	C1654.298340,3461.237061 1671.580444,3461.606445 1688.838623,3462.431396 
	C1690.988525,3462.533936 1693.082275,3463.809814 1694.601074,3465.270996 
	C1130.047852,3466.000000 566.095825,3466.000000 2.071856,3466.000000 
	C2.071856,2311.479248 2.071856,1156.958618 2.071856,2.218967 
	C1156.422607,2.218967 2310.845215,2.218967 3466.000000,2.218967 
	C3466.000000,555.374878 3466.000000,1108.750122 3466.000000,1663.062744 
z"/>
<path fill="#000000" opacity="1.000000" stroke="none" 
	d="
M1778.937256,3466.000000 
	C1777.756592,3465.285156 1777.513062,3464.570312 1777.269531,3463.855469 
	C1779.451538,3463.348389 1781.632202,3462.406250 1783.815918,3462.398682 
	C1821.707397,3462.268311 1859.452026,3459.397949 1897.147705,3456.020020 
	C1949.022949,3451.371338 2000.509888,3443.937744 2051.756592,3434.514648 
	C2104.717529,3424.776855 2157.058105,3412.527100 2208.818604,3397.833740 
	C2291.739502,3374.294678 2372.395020,3344.545898 2450.892822,3308.865723 
	C2508.777100,3282.554932 2564.838623,3252.873291 2619.531982,3220.490723 
	C2687.193359,3180.430176 2751.479248,3135.531250 2812.979004,3086.597412 
	C2845.495361,3060.725586 2877.329346,3034.037109 2907.268311,3005.190186 
	C2934.597412,2978.857178 2962.318115,2952.880127 2988.638428,2925.563477 
	C3022.991211,2889.909912 3055.246826,2852.342041 3086.208984,2813.653809 
	C3135.552979,2751.996582 3180.538574,2687.346436 3220.962891,2619.533203 
	C3250.944824,2569.237549 3278.358154,2517.588623 3303.148926,2464.497803 
	C3334.415283,2397.539062 3361.139893,2328.845215 3383.660400,2258.520508 
	C3402.108154,2200.914551 3417.495117,2142.430176 3429.443359,2083.143555 
	C3439.140869,2035.025757 3447.676025,1986.651733 3452.342041,1937.713745 
	C3455.142090,1908.343750 3457.830078,1878.961304 3460.272705,1849.559937 
	C3461.344238,1836.665039 3461.589111,1823.703003 3462.433350,1810.786133 
	C3462.571045,1808.681519 3463.875488,1806.653198 3465.320312,1805.294800 
	C3466.000000,2359.188721 3466.000000,2912.377441 3466.000000,3466.000000 
	C2903.958252,3466.000000 2341.916504,3466.000000 1778.937256,3466.000000 
z"/>
<path fill="#010000" opacity="1.000000" stroke="none" 
	d="
M1361.923096,2118.024658 
	C1349.245117,2097.629150 1336.751343,2077.954834 1324.783447,2057.965576 
	C1319.346313,2048.884277 1320.327759,2046.596558 1329.709961,2041.557739 
	C1412.452515,1997.118896 1495.212646,1952.712891 1577.989502,1908.338013 
	C1587.155151,1903.424561 1589.118774,1903.893433 1595.118042,1912.776367 
	C1612.876221,1939.070312 1632.303101,1963.973022 1654.640137,1986.598145 
	C1694.227783,2026.696045 1740.768311,2053.551270 1797.226929,2060.863281 
	C1859.343506,2068.908691 1919.659180,2062.496826 1976.420288,2034.441406 
	C2030.202881,2007.858032 2066.677979,1965.187744 2085.356689,1908.632202 
	C2111.036133,1830.880493 2111.050293,1752.332153 2083.031982,1675.249146 
	C2054.249756,1596.064453 1997.092163,1547.827881 1914.429321,1530.738403 
	C1883.882446,1524.423218 1852.846802,1524.484131 1821.832397,1526.992188 
	C1797.836060,1528.932373 1774.337769,1533.263550 1751.645386,1541.581909 
	C1715.668579,1554.769897 1685.129883,1576.430908 1657.163208,1602.073853 
	C1636.487305,1621.032227 1617.662720,1641.735718 1600.072388,1663.572510 
	C1597.772705,1666.427368 1595.442627,1669.257690 1593.118530,1672.092896 
	C1590.131226,1675.737183 1586.631592,1676.476807 1582.553589,1673.945801 
	C1580.572754,1672.716553 1578.576782,1671.511475 1576.591431,1670.289307 
	C1502.830444,1624.886108 1429.069580,1579.482544 1355.308594,1534.079224 
	C1354.740967,1533.729736 1354.167114,1533.390625 1353.601562,1533.038086 
	C1343.033447,1526.448486 1342.758789,1525.393188 1348.703857,1513.961914 
	C1386.888184,1440.540405 1441.110229,1381.476074 1509.404663,1335.175659 
	C1575.955322,1290.057251 1649.234985,1261.246460 1728.027100,1246.060669 
	C1784.272949,1235.219971 1840.931396,1232.165039 1898.132080,1235.436646 
	C1983.557007,1240.322388 2065.591797,1258.866211 2142.901123,1295.773926 
	C2269.254883,1356.095459 2361.472412,1449.481201 2414.471680,1580.057251 
	C2440.057129,1643.093628 2452.687988,1708.765503 2454.432617,1776.708130 
	C2455.591553,1821.831299 2453.199463,1866.630615 2444.404785,1910.969604 
	C2443.483154,1915.615967 2444.839355,1919.342773 2446.971436,1923.258545 
	C2463.121582,1952.922974 2484.591797,1978.128662 2510.614502,1999.535034 
	C2551.778076,2033.396606 2598.906494,2054.302734 2651.596924,2061.091797 
	C2709.722656,2068.581299 2766.763672,2063.406982 2820.827881,2038.960327 
	C2881.376221,2011.581909 2920.715088,1964.937256 2941.730225,1902.460327 
	C2957.050781,1856.912598 2960.237793,1809.947632 2956.862793,1762.312256 
	C2954.519531,1729.234131 2948.723145,1696.902100 2936.305420,1665.997437 
	C2918.450439,1621.560303 2890.219727,1585.947876 2847.556396,1562.913452 
	C2822.267822,1549.259766 2794.968262,1542.237671 2766.445557,1539.914795 
	C2720.686279,1536.188110 2676.043213,1541.533569 2632.594482,1556.636963 
	C2616.563477,1562.209351 2600.366211,1567.306152 2584.225098,1572.558960 
	C2574.667480,1575.669189 2573.050293,1575.045410 2568.760010,1565.890869 
	C2531.172363,1485.689087 2493.621582,1405.470093 2456.101074,1325.236938 
	C2451.418701,1315.223999 2451.972412,1313.832886 2461.967773,1307.904297 
	C2506.484619,1281.499878 2554.448242,1263.841064 2604.704346,1252.237549 
	C2666.395264,1237.993896 2728.984375,1231.563721 2792.207275,1234.621338 
	C2916.992188,1240.656372 3027.309082,1283.934570 3121.387939,1366.579346 
	C3213.091064,1447.136963 3270.055420,1548.252808 3296.113770,1667.092041 
	C3310.370117,1732.109253 3313.556641,1797.819092 3305.662598,1863.865234 
	C3290.107178,1994.007080 3236.589600,2105.636719 3140.921143,2196.026855 
	C3083.453125,2250.324219 3016.658936,2289.594971 2942.410156,2316.479980 
	C2886.950195,2336.561523 2829.730469,2348.612305 2771.075439,2353.479004 
	C2719.488770,2357.759277 2667.930176,2356.775146 2616.430664,2350.597168 
	C2552.501221,2342.927734 2490.827637,2327.064697 2431.888672,2301.188477 
	C2380.489990,2278.622070 2333.430664,2249.457764 2295.245605,2207.485352 
	C2294.593506,2206.768555 2293.702148,2206.269775 2292.645020,2205.455566 
	C2291.373291,2206.487549 2289.991699,2207.401123 2288.859131,2208.558350 
	C2249.786621,2248.479004 2203.026367,2276.923828 2152.326660,2299.225830 
	C2095.580322,2324.187500 2036.174194,2339.813477 1974.802246,2348.215088 
	C1918.155273,2355.969971 1861.307251,2358.545166 1804.300415,2353.861572 
	C1674.765869,2343.218750 1557.664795,2300.390137 1456.176880,2217.873779 
	C1420.563599,2188.917969 1389.436523,2155.646240 1361.923096,2118.024658 
z"/>
<path fill="#010000" opacity="1.000000" stroke="none" 
	d="
M998.164429,2292.156738 
	C949.893860,2318.918945 899.011475,2336.011963 845.567566,2345.918701 
	C797.492065,2354.830078 748.972290,2357.727539 700.247498,2355.547119 
	C598.388000,2350.989014 502.218811,2325.514160 414.244965,2273.122803 
	C313.388153,2213.059326 239.836731,2128.963379 195.576599,2019.767822 
	C175.676392,1970.671143 163.477585,1919.744629 157.664566,1867.139404 
	C152.740540,1822.579102 152.297989,1777.966675 156.423782,1733.419189 
	C164.335373,1647.995728 188.608688,1567.588379 233.103043,1493.846436 
	C271.548737,1430.129272 321.776184,1377.306396 383.152496,1335.325195 
	C457.335907,1284.583862 539.750427,1255.100830 628.309387,1241.687500 
	C680.949951,1233.714478 733.771667,1233.006714 786.834717,1235.339966 
	C834.914734,1237.454102 882.372681,1243.349243 929.119446,1254.814941 
	C984.807312,1268.473999 1037.051514,1290.741577 1087.108521,1318.365967 
	C1120.980835,1337.058594 1153.357666,1358.151123 1184.981689,1380.407349 
	C1193.784790,1386.602417 1194.167725,1388.092285 1189.304932,1397.611938 
	C1151.735107,1471.157593 1114.141846,1544.691528 1076.522583,1618.212036 
	C1071.191162,1628.631592 1068.416016,1629.255981 1059.218262,1621.751465 
	C1025.803223,1594.487183 990.366394,1570.381836 951.454712,1551.530273 
	C903.502808,1528.299194 853.053894,1515.074097 799.831543,1511.623535 
	C761.657959,1509.148682 723.897034,1510.665894 686.658203,1519.680054 
	C603.174072,1539.888428 548.876160,1591.697876 522.300232,1672.891113 
	C511.239075,1706.684326 506.577545,1741.637451 505.708588,1777.122070 
	C505.660675,1779.078979 505.864838,1781.042114 505.994690,1783.973755 
	C509.167908,1782.500977 511.835114,1781.425537 514.352112,1780.071045 
	C560.819519,1755.066284 610.336853,1739.127197 662.144104,1729.699463 
	C704.948547,1721.910034 748.040222,1718.785034 791.483826,1720.433960 
	C849.359497,1722.630615 905.954834,1732.459961 961.484802,1748.857422 
	C1014.687073,1764.567505 1065.694824,1785.783813 1114.808716,1811.286621 
	C1154.395020,1831.842163 1192.946533,1854.383789 1232.154663,1875.680542 
	C1239.174438,1879.493530 1241.098511,1884.040649 1240.122437,1891.728638 
	C1228.922119,1979.947388 1204.669800,2063.810059 1157.312134,2139.891846 
	C1117.431396,2203.961670 1064.740479,2254.836426 998.164429,2292.156738 
M660.957581,2066.090820 
	C705.259521,2076.867432 749.860168,2079.124756 794.647827,2069.758789 
	C830.871704,2062.183350 862.320923,2045.911987 886.174683,2016.769409 
	C887.778625,2014.809814 889.107544,2012.625122 891.295715,2009.500977 
	C882.423767,2004.742065 874.523499,1999.850098 866.113953,1996.100586 
	C815.404419,1973.490723 762.097473,1968.842285 707.624268,1974.844116 
	C663.961670,1979.654907 622.307556,1992.353882 582.100891,2009.887695 
	C578.895630,2011.285522 575.764099,2012.852417 570.899414,2015.139404 
	C579.510498,2022.850952 586.494629,2029.995361 594.363403,2035.975708 
	C613.749573,2050.709717 636.236694,2059.005127 660.957581,2066.090820 
z"/>
<path fill="#020200" opacity="1.000000" stroke="none" 
	d="
M1453.370605,655.656616 
	C1442.319458,680.095886 1441.268066,704.706604 1447.568604,729.621094 
	C1457.774170,769.978088 1488.719482,791.354065 1530.163696,786.989258 
	C1537.693970,786.196167 1545.112793,784.347168 1553.304077,782.854248 
	C1559.557373,804.297363 1565.861694,825.915771 1572.554077,848.864441 
	C1564.674072,851.098328 1557.566528,853.882751 1550.202026,855.062988 
	C1523.339966,859.367981 1496.368652,860.209045 1469.888428,852.900513 
	C1414.561890,837.630432 1380.076538,800.948486 1365.409912,746.305420 
	C1353.374512,701.464905 1357.122314,657.635193 1381.938477,617.227417 
	C1404.853638,579.914856 1439.277832,558.494141 1481.247070,548.907776 
	C1515.604858,541.059998 1550.006836,541.680908 1583.970215,551.888489 
	C1601.683594,557.212158 1617.778687,565.806946 1633.465332,577.282288 
	C1654.484375,556.238770 1679.242920,543.738647 1709.692871,543.720459 
	C1740.093628,543.702271 1765.521729,554.545288 1786.631226,576.961548 
	C1789.080688,575.554260 1791.382568,574.428345 1793.477173,572.998718 
	C1821.254761,554.040588 1852.201294,545.200989 1885.567993,543.996826 
	C1918.774780,542.798462 1950.703247,548.078369 1980.276489,563.810059 
	C2030.146729,590.339050 2057.055664,632.258057 2061.915771,688.298828 
	C2064.840820,722.029785 2058.627441,754.196350 2041.609741,783.578979 
	C2014.644775,830.137268 1973.572876,854.514465 1920.070923,857.778870 
	C1900.045654,859.000671 1880.095337,857.719666 1860.683350,851.915283 
	C1857.206787,850.875732 1853.769409,849.705750 1849.092163,848.203674 
	C1855.305542,826.051331 1861.376465,804.406494 1867.607788,782.190186 
	C1869.545776,782.515198 1871.134521,782.554565 1872.561035,783.055664 
	C1888.444946,788.636047 1904.726440,788.818604 1920.881714,785.374451 
	C1944.067627,780.431519 1960.370605,766.241394 1969.243530,744.518616 
	C1980.834595,716.141052 1980.784912,687.124695 1969.231201,658.802124 
	C1958.501099,632.498169 1938.266235,616.926758 1910.327515,611.541870 
	C1895.025024,608.592407 1879.764526,609.129333 1864.766113,613.185059 
	C1830.682129,622.401855 1811.542358,645.571167 1804.141479,679.294739 
	C1799.994995,698.188232 1801.869873,717.027100 1804.866455,735.899170 
	C1806.638794,747.060913 1808.240967,758.336975 1808.668701,769.609131 
	C1810.131958,808.162720 1789.605591,838.126099 1753.170410,850.729004 
	C1724.462402,860.659058 1695.462524,860.318298 1666.904297,850.324463 
	C1632.199219,838.179626 1612.429443,809.991699 1612.614624,772.342346 
	C1612.682861,758.445435 1615.049438,744.509033 1617.027222,730.684998 
	C1619.552979,713.032227 1619.844849,695.504028 1615.991821,678.050171 
	C1605.307739,629.649658 1566.075684,606.550232 1520.483398,610.771362 
	C1490.522461,613.545288 1467.577148,627.568237 1453.370605,655.656616 
M1746.283081,633.632568 
	C1748.211304,630.397644 1748.361084,627.013367 1745.397583,624.601929 
	C1740.818115,620.875488 1736.270996,616.460999 1730.917236,614.460999 
	C1717.079834,609.291809 1702.822266,609.929688 1688.900024,614.796021 
	C1685.833496,615.867798 1682.929199,617.781921 1680.359131,619.822876 
	C1673.480835,625.285461 1672.977783,627.672058 1676.081787,635.969116 
	C1686.579834,664.031555 1688.584473,692.864197 1684.373535,722.381653 
	C1682.593994,734.855591 1681.134766,747.422546 1680.503784,759.996094 
	C1680.097412,768.093994 1682.349976,776.149170 1689.175659,781.460632 
	C1700.483643,790.260132 1713.413940,790.365173 1726.090576,785.647339 
	C1737.950073,781.233765 1741.803101,770.730103 1741.524048,759.031311 
	C1741.295166,749.433594 1740.401733,739.733826 1738.588623,730.313049 
	C1732.342041,697.855652 1734.177124,666.142822 1746.283081,633.632568 
z"/>
<path fill="#020200" opacity="1.000000" stroke="none" 
	d="
M1946.626709,2675.336426 
	C1980.340942,2701.860596 1997.405396,2736.441650 2000.041870,2778.099365 
	C2000.834106,2790.618652 1999.007080,2803.291016 1998.701904,2815.901123 
	C1998.625000,2819.074951 1999.200073,2822.539795 2000.475708,2825.429199 
	C2013.163574,2854.166992 2045.892334,2872.748535 2077.879150,2869.608643 
	C2110.322754,2866.424072 2134.895508,2844.148193 2141.952148,2811.389893 
	C2145.669678,2794.132080 2145.088623,2776.939209 2140.204346,2759.995117 
	C2129.050781,2721.300781 2097.881104,2705.427490 2059.508789,2715.185059 
	C2055.035645,2716.322754 2050.727539,2718.111328 2045.195190,2719.987305 
	C2036.892822,2702.388672 2028.578003,2684.763916 2019.736938,2666.023438 
	C2023.376709,2663.952637 2026.776245,2661.316406 2030.625854,2659.930908 
	C2123.050293,2626.676514 2200.299072,2677.957520 2216.161621,2759.233887 
	C2223.248535,2795.545410 2219.133545,2830.355957 2199.886230,2862.384277 
	C2178.739014,2897.574219 2146.804443,2917.940430 2106.997314,2925.681396 
	C2080.244629,2930.883789 2053.380615,2930.519531 2026.910522,2922.624023 
	C2004.276733,2915.873047 1984.855347,2904.392822 1970.216064,2885.524658 
	C1969.397095,2884.469238 1968.791626,2883.248047 1967.782104,2881.609619 
	C1952.832031,2897.616211 1936.630249,2909.874756 1917.369263,2917.061768 
	C1870.486328,2934.554443 1824.067139,2934.567383 1779.558105,2909.699707 
	C1769.009033,2903.806152 1760.315430,2894.591064 1750.215820,2886.458984 
	C1707.151733,2929.792969 1653.651367,2936.373535 1596.087891,2922.805176 
	C1556.971191,2913.584961 1525.605713,2889.254395 1511.380371,2859.748047 
	C1529.696411,2849.957764 1548.067017,2840.138428 1566.651611,2830.204590 
	C1569.892700,2834.240234 1572.651001,2837.983887 1575.722656,2841.450195 
	C1597.325806,2865.828369 1624.128540,2874.914551 1655.834839,2867.250977 
	C1682.770142,2860.740234 1698.575806,2842.394531 1705.251587,2816.208740 
	C1710.724243,2794.743408 1709.719849,2773.233398 1701.975464,2752.332275 
	C1690.973511,2722.638916 1665.733765,2707.229492 1634.031250,2709.251953 
	C1609.182983,2710.837158 1589.521606,2721.600586 1573.416748,2739.927734 
	C1571.688110,2741.894775 1569.921997,2743.828857 1567.704102,2746.301270 
	C1550.820312,2735.926514 1534.190308,2725.707520 1516.451660,2714.807617 
	C1520.474854,2708.739258 1523.670410,2702.959473 1527.764771,2697.908447 
	C1545.890747,2675.547607 1569.901489,2662.537598 1597.384033,2655.614990 
	C1635.774292,2645.945068 1673.521240,2647.640381 1709.438232,2665.169434 
	C1753.175781,2686.515625 1776.003418,2722.835205 1782.150513,2770.471191 
	C1784.128784,2785.802246 1783.814087,2801.076660 1781.510498,2816.286865 
	C1780.813354,2820.890381 1781.630493,2824.711182 1783.724121,2828.680420 
	C1799.033936,2857.703613 1828.737671,2872.969971 1861.047119,2869.275879 
	C1894.486694,2865.453125 1917.838501,2842.328125 1924.134033,2808.864746 
	C1927.214600,2792.490479 1926.495239,2776.304688 1921.961914,2760.395996 
	C1910.579956,2720.455322 1878.528564,2705.390381 1840.593872,2715.344727 
	C1836.136963,2716.514160 1831.833374,2718.267578 1826.757202,2719.987793 
	C1818.363037,2702.102051 1810.062378,2684.415527 1801.394409,2665.946289 
	C1818.058350,2654.610352 1836.768311,2652.040527 1855.582275,2650.466309 
	C1888.593750,2647.703857 1919.155029,2654.704102 1946.626709,2675.336426 
z"/>
<path fill="#020100" opacity="1.000000" stroke="none" 
	d="
M1207.973755,722.005127 
	C1208.010620,704.687012 1208.313110,688.386719 1204.277344,672.333496 
	C1192.361328,624.935120 1151.905884,606.200623 1112.163940,610.967590 
	C1083.458130,614.410889 1061.565674,628.374695 1047.503418,653.954834 
	C1046.401245,655.959778 1045.592285,658.125854 1044.284302,661.019653 
	C1048.128540,662.124634 1051.467896,663.152039 1054.843262,664.043640 
	C1076.489014,669.761658 1097.463867,677.073669 1116.675659,688.909058 
	C1143.703735,705.559692 1163.047241,728.506409 1174.590820,758.114197 
	C1186.013428,787.411560 1189.265503,817.981995 1190.045166,850.225159 
	C1177.836914,852.642212 1166.249023,855.884460 1154.452637,857.094971 
	C1118.352905,860.799316 1083.276489,857.046326 1050.547119,839.896667 
	C1008.111755,817.661255 983.267395,782.281067 974.217957,735.767700 
	C968.136841,704.511414 969.286438,673.330444 980.310547,643.157288 
	C999.251892,591.314209 1036.814453,560.177673 1090.021973,548.267700 
	C1128.660034,539.619080 1167.024536,541.954224 1203.445312,558.627319 
	C1251.323730,580.545471 1278.842651,618.602112 1287.839966,670.012817 
	C1290.179077,683.377991 1290.799316,697.184326 1290.828735,710.791077 
	C1291.060547,818.091614 1290.957642,925.392883 1290.957642,1032.693970 
	C1290.957642,1036.628540 1290.957764,1040.562988 1290.957764,1045.516602 
	C1311.764526,1045.516602 1331.599609,1045.516602 1351.942749,1045.516602 
	C1351.942749,1068.016479 1351.942749,1089.496582 1351.942749,1111.578369 
	C1304.245117,1111.578369 1256.769531,1111.578369 1207.973755,1111.578369 
	C1207.973755,981.984680 1207.973755,852.494263 1207.973755,722.005127 
M1061.868530,716.997314 
	C1053.740356,714.530334 1045.763184,711.314697 1036.980103,711.422241 
	C1039.269165,767.921509 1094.531738,796.838440 1132.366943,791.562195 
	C1126.294067,760.512390 1099.649292,731.971741 1061.868530,716.997314 
z"/>
<path fill="#020200" opacity="1.000000" stroke="none" 
	d="
M2514.665771,2888.651855 
	C2519.324219,2878.629395 2523.646484,2869.280273 2528.371338,2859.061035 
	C2531.983398,2860.161377 2535.371826,2861.093506 2538.693115,2862.222900 
	C2551.590332,2866.609619 2564.724121,2867.996338 2577.993896,2864.526855 
	C2601.154541,2858.471191 2613.433838,2841.874512 2619.069336,2819.875732 
	C2624.402100,2799.060303 2623.393799,2778.153564 2616.138428,2757.894287 
	C2606.896729,2732.087646 2588.119385,2717.998535 2560.915039,2715.646729 
	C2534.011475,2713.320801 2508.619629,2719.195557 2484.560303,2731.197021 
	C2478.915283,2734.013184 2473.324463,2736.937500 2467.011230,2740.168945 
	C2462.370850,2733.208740 2457.812500,2726.371826 2452.862305,2718.947021 
	C2449.454346,2722.157715 2446.376709,2725.057617 2443.054688,2728.187500 
	C2430.471436,2715.762451 2415.869629,2707.374756 2398.505127,2704.934570 
	C2393.099854,2704.175049 2387.021729,2704.556396 2381.880371,2706.285400 
	C2369.440186,2710.469238 2366.585205,2723.847412 2376.665283,2732.245117 
	C2383.441895,2737.891357 2391.652588,2742.105957 2399.745605,2745.818604 
	C2413.954346,2752.336914 2428.681885,2757.717285 2442.962402,2764.088867 
	C2451.146973,2767.740479 2459.151123,2771.968994 2466.761719,2776.701416 
	C2486.237549,2788.811768 2498.693848,2805.910645 2500.665527,2829.213623 
	C2501.527832,2839.406738 2501.720215,2849.887207 2500.372559,2859.990967 
	C2497.128906,2884.307129 2483.133789,2901.291992 2461.561523,2912.301270 
	C2446.229492,2920.125488 2429.777588,2924.044189 2412.777344,2925.942139 
	C2409.199463,2926.341309 2405.611328,2926.646484 2400.885010,2927.106445 
	C2400.885010,3002.828125 2400.885010,3077.924561 2400.885010,3153.462402 
	C2382.523438,3153.462402 2365.385742,3153.462402 2347.227051,3153.462402 
	C2347.227051,3078.098877 2347.227051,3003.277832 2347.227051,2928.822021 
	C2332.744141,2926.427002 2319.220459,2924.659180 2305.915527,2921.854492 
	C2293.455322,2919.227539 2282.052246,2913.941895 2271.653076,2906.253418 
	C2246.289551,2887.499512 2240.426758,2839.621582 2275.800293,2816.201172 
	C2313.020508,2791.558105 2362.218018,2803.010986 2383.658936,2842.085205 
	C2389.353760,2852.464111 2392.879639,2864.033203 2397.648438,2875.657471 
	C2405.727539,2874.496338 2413.757568,2871.732422 2420.801025,2866.531250 
	C2433.163330,2857.402344 2435.983154,2841.632568 2426.248779,2829.633057 
	C2421.142578,2823.338623 2414.276367,2817.982178 2407.233154,2813.864258 
	C2396.930420,2807.840820 2385.865967,2803.060059 2374.925049,2798.202393 
	C2358.795898,2791.041016 2342.611084,2784.174561 2327.966553,2774.008545 
	C2292.413574,2749.327637 2292.977295,2698.502686 2321.295166,2672.976318 
	C2331.092529,2664.144775 2342.238281,2657.494385 2355.009277,2654.135498 
	C2390.141602,2644.895508 2423.645020,2649.265137 2455.386719,2666.954590 
	C2458.280273,2668.566895 2461.090820,2670.328857 2462.903809,2671.406006 
	C2478.773438,2665.787598 2493.461670,2659.349609 2508.793213,2655.421143 
	C2539.275391,2647.610352 2570.272217,2647.436035 2600.810791,2655.124512 
	C2645.291016,2666.323486 2675.573242,2693.973145 2689.197510,2737.835938 
	C2701.399902,2777.121094 2700.621582,2816.875977 2685.962646,2855.530029 
	C2668.839111,2900.683105 2634.455078,2923.542480 2587.262695,2928.146973 
	C2567.257324,2930.098633 2547.260986,2929.119385 2527.821777,2923.562744 
	C2519.640625,2921.224609 2511.846924,2917.531494 2503.146484,2914.172119 
	C2507.290527,2904.964600 2510.810059,2897.144775 2514.665771,2888.651855 
M2300.814453,2869.945801 
	C2313.618652,2879.962158 2328.809570,2878.350098 2345.175781,2880.119385 
	C2342.885742,2871.789551 2341.648438,2864.882568 2339.028076,2858.546875 
	C2337.050537,2853.764648 2333.926514,2849.071777 2330.213867,2845.472412 
	C2322.813721,2838.297852 2310.122803,2837.963135 2302.594727,2843.863770 
	C2294.930420,2849.871582 2293.992432,2858.175293 2300.814453,2869.945801 
z"/>
<path fill="#020200" opacity="1.000000" stroke="none" 
	d="
M2262.807129,544.504272 
	C2297.779541,542.099426 2331.080566,545.403198 2362.246826,560.153259 
	C2415.515381,585.363892 2444.471191,627.908447 2450.171631,686.435486 
	C2452.564453,711.001953 2449.952881,735.046021 2441.319580,758.166443 
	C2425.473145,800.604553 2395.734619,829.892151 2353.621094,845.569092 
	C2302.467773,864.611023 2250.814941,864.056458 2200.935547,841.530518 
	C2148.333740,817.775085 2119.758789,775.649414 2113.639648,718.251953 
	C2110.273193,686.673401 2114.810059,656.400940 2129.294922,628.059143 
	C2150.667236,586.241028 2185.826660,561.815002 2230.467285,550.169495 
	C2240.724854,547.493652 2251.399902,546.418030 2262.807129,544.504272 
M2195.729248,675.059082 
	C2193.232178,686.715149 2191.190186,698.385681 2194.087402,711.225403 
	C2252.805176,682.140503 2311.077881,681.090210 2369.950195,710.921265 
	C2369.950195,702.245911 2370.708984,694.626404 2369.818848,687.204590 
	C2365.869385,654.266052 2350.033936,629.462341 2318.478516,616.807434 
	C2298.456787,608.777954 2277.528076,607.977478 2256.634766,613.300415 
	C2224.749512,621.423523 2204.821045,641.889954 2195.729248,675.059082 
M2225.482422,779.638184 
	C2240.978027,790.630554 2258.562012,794.620239 2277.201416,794.992859 
	C2298.879639,795.426331 2319.648682,792.162109 2337.847900,779.279663 
	C2345.107666,774.140747 2351.413330,768.038879 2355.991211,759.202576 
	C2306.002686,738.899902 2257.511230,737.968323 2208.180420,760.969543 
	C2210.494385,764.270630 2211.748779,766.627014 2213.528564,768.478149 
	C2216.972168,772.059570 2220.711670,775.356384 2225.482422,779.638184 
z"/>
<path fill="#020200" opacity="1.000000" stroke="none" 
	d="
M2836.249756,663.842651 
	C2841.111816,692.998962 2841.094238,721.172852 2833.086182,748.889709 
	C2818.899902,797.989868 2786.979004,830.944519 2739.033936,847.354919 
	C2692.479004,863.289551 2645.196045,863.151306 2598.890381,846.156128 
	C2545.296143,826.485779 2512.938965,787.838745 2503.897705,731.350403 
	C2496.350098,684.195923 2503.295410,638.989624 2528.274414,597.548157 
	C2541.752686,575.187012 2559.796875,557.224365 2583.678467,544.008057 
	C2597.336182,565.741882 2610.937256,587.385559 2625.272705,610.197449 
	C2610.984375,622.838379 2598.373291,636.869568 2590.680420,654.525269 
	C2582.963379,672.236694 2580.733398,690.715027 2582.416260,711.372070 
	C2640.983887,682.241516 2699.054443,681.302856 2757.986816,709.916321 
	C2761.360840,668.334045 2745.999268,636.196228 2715.353760,610.239258 
	C2729.316162,587.982788 2742.902588,566.325928 2757.047852,543.778564 
	C2802.896484,571.144226 2827.192627,611.911072 2836.249756,663.842651 
M2705.192383,790.499268 
	C2721.916260,785.411499 2735.065918,775.832947 2744.231689,760.618408 
	C2703.154053,738.211060 2635.721191,738.386963 2597.306396,761.718506 
	C2598.454834,763.640686 2599.405029,765.727051 2600.789062,767.468567 
	C2610.884766,780.170593 2624.153564,787.913635 2639.694092,791.997253 
	C2661.107178,797.624023 2682.436523,796.783936 2705.192383,790.499268 
z"/>
<path fill="#020200" opacity="1.000000" stroke="none" 
	d="
M829.147461,649.161133 
	C821.184387,633.801025 810.429993,621.627930 797.302307,610.275940 
	C811.202515,588.109680 824.932983,566.213989 838.855774,544.011780 
	C862.178650,556.803711 879.773193,574.595764 893.517517,596.345154 
	C908.747986,620.446228 916.671936,647.068481 919.899231,675.194092 
	C922.537903,698.190674 922.107666,721.054199 916.364990,743.648315 
	C903.161987,795.594482 870.732483,830.340271 820.499207,847.499207 
	C773.958069,863.397095 726.662354,863.109009 680.430237,846.020081 
	C627.325867,826.390930 595.243591,787.980469 585.914429,731.985657 
	C578.720215,688.804810 584.281860,646.926880 604.447083,607.705383 
	C618.287048,580.786560 638.172180,559.271240 665.643433,543.998291 
	C679.391479,565.889587 692.981323,587.528992 707.223816,610.207581 
	C692.838928,622.937378 680.231873,636.970947 672.569092,654.655396 
	C664.989990,672.146790 662.710327,690.446594 664.343567,710.722534 
	C667.435974,709.607056 670.130310,708.905823 672.583069,707.709351 
	C703.904236,692.430969 736.953979,686.906616 771.571045,689.803345 
	C792.048584,691.516846 811.363342,697.398071 830.094849,705.539429 
	C833.053589,706.825439 836.078979,707.957764 840.063965,709.559082 
	C841.671997,688.024536 838.581482,668.420105 829.147461,649.161133 
M723.026611,792.279419 
	C747.288513,798.167297 771.198486,796.970520 794.439941,787.848022 
	C807.981873,782.532654 818.653015,773.496155 826.080322,760.687195 
	C784.621643,737.233887 712.164490,739.191833 679.299927,762.479004 
	C689.302612,778.151306 703.912537,787.086548 723.026611,792.279419 
z"/>
<path fill="#020200" opacity="1.000000" stroke="none" 
	d="
M934.222778,2654.024414 
	C973.668640,2646.589355 1011.495300,2648.470459 1047.249512,2665.894043 
	C1092.963379,2688.171387 1117.315430,2725.574463 1122.364624,2775.931885 
	C1125.268188,2804.891357 1120.428101,2832.360352 1106.457520,2857.954590 
	C1088.953125,2890.022461 1061.822388,2910.756104 1027.280762,2920.994873 
	C984.030151,2933.815430 940.856567,2932.640869 899.623657,2913.171143 
	C854.366821,2891.801514 829.673828,2854.989258 824.295349,2805.497803 
	C821.330688,2778.217285 824.713257,2751.593018 837.104187,2726.697510 
	C855.633057,2689.470215 886.227722,2667.213135 925.639221,2656.100098 
	C928.200195,2655.378174 930.802246,2654.801758 934.222778,2654.024414 
M1047.983887,2783.432129 
	C1047.184326,2777.506592 1046.827148,2771.481201 1045.512329,2765.672363 
	C1037.879028,2731.951416 1011.914612,2710.581055 977.291016,2709.234619 
	C938.233887,2707.715820 909.308472,2729.239258 901.006775,2766.797119 
	C899.020752,2775.782227 898.207458,2785.307373 898.641724,2794.499756 
	C900.887756,2842.046631 931.703979,2871.185791 977.472900,2869.733887 
	C1009.377686,2868.721680 1034.634644,2849.373535 1044.056641,2818.804932 
	C1047.427612,2807.868652 1048.585693,2796.694092 1047.983887,2783.432129 
z"/>
<path fill="#020200" opacity="1.000000" stroke="none" 
	d="
M1358.299438,2858.525146 
	C1380.061157,2844.219482 1389.780396,2823.658936 1391.864746,2799.312988 
	C1394.744263,2765.681152 1385.515137,2736.049805 1360.656738,2712.178467 
	C1359.714111,2711.273193 1358.964600,2710.166992 1357.685669,2708.624268 
	C1369.829346,2689.245361 1381.968994,2669.872803 1394.302002,2650.191895 
	C1414.701416,2661.571289 1430.505371,2676.653076 1442.014771,2695.738525 
	C1468.130005,2739.044678 1474.585083,2785.758789 1460.939453,2834.159668 
	C1448.304077,2878.976074 1417.315063,2907.474365 1373.251343,2920.917480 
	C1333.974609,2932.900391 1294.145508,2932.625244 1255.404297,2918.620605 
	C1203.371826,2899.811279 1174.470703,2861.550537 1168.631348,2806.958008 
	C1164.501709,2768.348389 1171.006348,2731.212646 1191.775757,2697.525391 
	C1203.864990,2677.917480 1219.690186,2662.104492 1240.762939,2650.136230 
	C1253.109985,2669.847656 1265.221802,2689.183594 1277.390625,2708.610596 
	C1272.625732,2714.062256 1267.958008,2718.825684 1263.945557,2724.088623 
	C1240.862671,2754.363037 1236.332764,2788.110840 1248.819702,2823.292725 
	C1264.571289,2867.674072 1312.853027,2878.920898 1349.713623,2863.050537 
	C1352.454590,2861.870361 1355.030151,2860.306152 1358.299438,2858.525146 
z"/>
<path fill="#030200" opacity="1.000000" stroke="none" 
	d="
M2782.042969,1053.888672 
	C2766.008545,1102.318115 2731.348389,1125.287354 2682.891846,1130.457397 
	C2667.153809,1132.136597 2651.649658,1131.345581 2636.200439,1128.151611 
	C2590.866211,1118.779175 2558.909912,1086.895020 2550.566162,1041.308228 
	C2544.689209,1009.199097 2547.441650,977.557983 2559.761719,947.110474 
	C2569.018799,924.232727 2584.191162,906.252991 2606.314941,892.582275 
	C2617.486816,910.452637 2628.335938,927.806885 2639.621582,945.859131 
	C2616.976807,965.560547 2608.701416,990.395020 2612.326172,1020.859985 
	C2630.366699,1014.165039 2648.440430,1009.322083 2667.590088,1009.566040 
	C2686.730713,1009.809814 2705.159424,1013.235535 2723.495850,1020.908752 
	C2726.494629,990.506409 2718.067871,965.737305 2696.005615,945.907837 
	C2707.100830,928.080017 2717.798828,910.890564 2728.871826,893.098816 
	C2731.509766,894.495117 2733.918945,895.442322 2735.961426,896.902466 
	C2757.033691,911.965271 2771.253418,932.208679 2779.040039,956.660706 
	C2789.145508,988.394104 2791.332275,1020.620789 2782.042969,1053.888672 
M2681.550537,1043.306763 
	C2660.695312,1040.504761 2640.950684,1043.193726 2622.226562,1054.425293 
	C2635.132812,1073.428955 2652.734863,1079.609619 2673.712402,1078.073608 
	C2690.439453,1076.848755 2704.192139,1070.386719 2713.477295,1055.055298 
	C2703.857422,1048.370850 2693.918945,1045.075195 2681.550537,1043.306763 
z"/>
<path fill="#030200" opacity="1.000000" stroke="none" 
	d="
M1031.966919,2447.950684 
	C1072.581543,2480.491455 1074.693970,2548.436768 1043.177612,2584.476074 
	C1033.778198,2595.224121 1022.535706,2603.245117 1009.289490,2608.421875 
	C985.153870,2617.854736 960.583557,2618.512207 935.971436,2610.822998 
	C900.709473,2599.806885 876.962769,2569.146240 874.162598,2531.658203 
	C873.114868,2517.631104 873.704834,2503.722656 878.057861,2490.179443 
	C886.505127,2463.898193 902.962219,2444.585693 929.045227,2435.109131 
	C964.994263,2422.047852 999.587280,2424.384033 1031.966919,2447.950684 
M1004.184875,2538.636963 
	C1007.963867,2522.183350 1007.456238,2506.087891 998.687317,2491.234375 
	C985.232056,2468.442871 953.492371,2468.207520 940.229431,2491.101074 
	C928.825684,2510.785400 929.237244,2531.590820 940.018250,2551.222900 
	C952.970215,2574.808105 985.539917,2574.446045 999.060059,2551.196777 
	C1001.048828,2547.777100 1002.268433,2543.910156 1004.184875,2538.636963 
z"/>
<path fill="#FDC200" opacity="1.000000" stroke="none" 
	d="
M660.155151,2065.935547 
	C636.236694,2059.005127 613.749573,2050.709717 594.363403,2035.975708 
	C586.494629,2029.995361 579.510498,2022.850952 570.899414,2015.139404 
	C575.764099,2012.852417 578.895630,2011.285522 582.100891,2009.887695 
	C622.307556,1992.353882 663.961670,1979.654907 707.624268,1974.844116 
	C762.097473,1968.842285 815.404419,1973.490723 866.113953,1996.100586 
	C874.523499,1999.850098 882.423767,2004.742065 891.295715,2009.500977 
	C889.107544,2012.625122 887.778625,2014.809814 886.174683,2016.769409 
	C862.320923,2045.911987 830.871704,2062.183350 794.647827,2069.758789 
	C749.860168,2079.124756 705.259521,2076.867432 660.155151,2065.935547 
z"/>
<path fill="#FBC100" opacity="1.000000" stroke="none" 
	d="
M1746.047119,634.369446 
	C1734.177124,666.142822 1732.342041,697.855652 1738.588623,730.313049 
	C1740.401733,739.733826 1741.295166,749.433594 1741.524048,759.031311 
	C1741.803101,770.730103 1737.950073,781.233765 1726.090576,785.647339 
	C1713.413940,790.365173 1700.483643,790.260132 1689.175659,781.460632 
	C1682.349976,776.149170 1680.097412,768.093994 1680.503784,759.996094 
	C1681.134766,747.422546 1682.593994,734.855591 1684.373535,722.381653 
	C1688.584473,692.864197 1686.579834,664.031555 1676.081787,635.969116 
	C1672.977783,627.672058 1673.480835,625.285461 1680.359131,619.822876 
	C1682.929199,617.781921 1685.833496,615.867798 1688.900024,614.796021 
	C1702.822266,609.929688 1717.079834,609.291809 1730.917236,614.460999 
	C1736.270996,616.460999 1740.818115,620.875488 1745.397583,624.601929 
	C1748.361084,627.013367 1748.211304,630.397644 1746.047119,634.369446 
z"/>
<path fill="#F9C000" opacity="1.000000" stroke="none" 
	d="
M1062.589722,717.294861 
	C1099.649292,731.971741 1126.294067,760.512390 1132.366943,791.562195 
	C1094.531738,796.838440 1039.269165,767.921509 1036.980103,711.422241 
	C1045.763184,711.314697 1053.740356,714.530334 1062.589722,717.294861 
z"/>
<path fill="#F8BE00" opacity="1.000000" stroke="none" 
	d="
M2300.295410,2869.375977 
	C2293.992432,2858.175293 2294.930420,2849.871582 2302.594727,2843.863770 
	C2310.122803,2837.963135 2322.813721,2838.297852 2330.213867,2845.472412 
	C2333.926514,2849.071777 2337.050537,2853.764648 2339.028076,2858.546875 
	C2341.648438,2864.882568 2342.885742,2871.789551 2345.175781,2880.119385 
	C2328.809570,2878.350098 2313.618652,2879.962158 2300.295410,2869.375977 
z"/>
<path fill="#FCC100" opacity="1.000000" stroke="none" 
	d="
M2195.880371,674.247559 
	C2204.821045,641.889954 2224.749512,621.423523 2256.634766,613.300415 
	C2277.528076,607.977478 2298.456787,608.777954 2318.478516,616.807434 
	C2350.033936,629.462341 2365.869385,654.266052 2369.818848,687.204590 
	C2370.708984,694.626404 2369.950195,702.245911 2369.950195,710.921265 
	C2311.077881,681.090210 2252.805176,682.140503 2194.087402,711.225403 
	C2191.190186,698.385681 2193.232178,686.715149 2195.880371,674.247559 
z"/>
<path fill="#FAC000" opacity="1.000000" stroke="none" 
	d="
M2224.905518,779.204712 
	C2220.711670,775.356384 2216.972168,772.059570 2213.528564,768.478149 
	C2211.748779,766.627014 2210.494385,764.270630 2208.180420,760.969543 
	C2257.511230,737.968323 2306.002686,738.899902 2355.991211,759.202576 
	C2351.413330,768.038879 2345.107666,774.140747 2337.847900,779.279663 
	C2319.648682,792.162109 2298.879639,795.426331 2277.201416,794.992859 
	C2258.562012,794.620239 2240.978027,790.630554 2224.905518,779.204712 
z"/>
<path fill="#FAC000" opacity="1.000000" stroke="none" 
	d="
M2704.441650,790.786682 
	C2682.436523,796.783936 2661.107178,797.624023 2639.694092,791.997253 
	C2624.153564,787.913635 2610.884766,780.170593 2600.789062,767.468567 
	C2599.405029,765.727051 2598.454834,763.640686 2597.306396,761.718506 
	C2635.721191,738.386963 2703.154053,738.211060 2744.231689,760.618408 
	C2735.065918,775.832947 2721.916260,785.411499 2704.441650,790.786682 
z"/>
<path fill="#FAC000" opacity="1.000000" stroke="none" 
	d="
M722.223816,792.119629 
	C703.912537,787.086548 689.302612,778.151306 679.299927,762.479004 
	C712.164490,739.191833 784.621643,737.233887 826.080322,760.687195 
	C818.653015,773.496155 807.981873,782.532654 794.439941,787.848022 
	C771.198486,796.970520 747.288513,798.167297 722.223816,792.119629 
z"/>
<path fill="#FDC200" opacity="1.000000" stroke="none" 
	d="
M1048.019531,2784.368652 
	C1048.585693,2796.694092 1047.427612,2807.868652 1044.056641,2818.804932 
	C1034.634644,2849.373535 1009.377686,2868.721680 977.472900,2869.733887 
	C931.703979,2871.185791 900.887756,2842.046631 898.641724,2794.499756 
	C898.207458,2785.307373 899.020752,2775.782227 901.006775,2766.797119 
	C909.308472,2729.239258 938.233887,2707.715820 977.291016,2709.234619 
	C1011.914612,2710.581055 1037.879028,2731.951416 1045.512329,2765.672363 
	C1046.827148,2771.481201 1047.184326,2777.506592 1048.019531,2784.368652 
z"/>
<path fill="#F8BE00" opacity="1.000000" stroke="none" 
	d="
M2682.411865,1043.454834 
	C2693.918945,1045.075195 2703.857422,1048.370850 2713.477295,1055.055298 
	C2704.192139,1070.386719 2690.439453,1076.848755 2673.712402,1078.073608 
	C2652.734863,1079.609619 2635.132812,1073.428955 2622.226562,1054.425293 
	C2640.950684,1043.193726 2660.695312,1040.504761 2682.411865,1043.454834 
z"/>
<path fill="#FBC100" opacity="1.000000" stroke="none" 
	d="
M1004.014404,2539.443359 
	C1002.268433,2543.910156 1001.048828,2547.777100 999.060059,2551.196777 
	C985.539917,2574.446045 952.970215,2574.808105 940.018250,2551.222900 
	C929.237244,2531.590820 928.825684,2510.785400 940.229431,2491.101074 
	C953.492371,2468.207520 985.232056,2468.442871 998.687317,2491.234375 
	C1007.456238,2506.087891 1007.963867,2522.183350 1004.014404,2539.443359 
z"/>
</svg>